
<svg xmlns="http://www.w3.org/2000/svg" version="1.1" xmlns:xlink="http://www.w3.org/1999/xlink" preserveAspectRatio="none" x="0px" y="0px" width="66px" height="50px" viewBox="0 0 66 50">
<defs>
<g id="Layer0_0_FILL">
<path fill="#FF0000" stroke="none" d="
M 61.05 1.1
L 61.1 1.2
Q 61.1 5.35 61.15 6.1 61.25 9.1 61.75 9.1
L 61.8 9.1
Q 62.2 9.05 62.3 7.8 62.35 7.15 62.3 6.25 62.3 5.15 62.3 4.95 62.25 3.8 62.15 3.15 62.1 2.6 62.2 1.55 62.25 0.6 61.5 0 60.35 0.2 59.1 1.05 57.85 2.05 57.35 2.35 56.05 3.1 55.4 3.5 54.15 4.25 54.15 4.75 54.15 5.3 55.2 6.2 55.75 6.7 57.05 7.65 57.7 8.15 59.1 9.45 60.35 10.55 60.8 10.55 61 10.55 61.1 10.45
L 61.25 10.35 61.3 10.05 61.3 10
Q 60.75 9.1 58.5 7.35 56.2 5.55 55.6 4.75 56.75 4.1 58.2 3.15 59.2 2.45 61.05 1.1
M 54.05 7.7
Q 53.65 7.1 53.35 6.85 52.3 5.8 50.9 6.4 49.95 6.8 48.45 7.65 47 8.5 46.3 9 45.45 9.7 44.7 10.15 44.05 10.55 43.85 10.65 43.55 10.85 43.5 11.05 43.4 11.25 43.4 11.8 43.4 12.85 44 13.8 44.55 14.7 45.8 15.75
L 46.8 15.75
Q 47.3 15.4 47.8 14.85 47.85 14.85 47.9 14.8 48 15.2 48.2 15.7 48.35 16.1 48.5 16.45 48.55 16.9 49.85 18.9 50.1 19.25 50.4 20.45 50.8 21.4 52 21.4 52.35 21.4 54 20.4 55.65 19.35 55.65 19.05 55.3 18.55 55 18.15 55.75 18.35 56.4 18.6
L 57.95 18.6
Q 58.6 18.35 58.65 17.9 58.7 17.6 58.75 16.95 58.85 16.55 59.1 15.85 59.2 15.6 59.2 15.05 59.2 14.3 58.75 14.05 58.65 14.05 56.8 13.55 55.9 13.35 55.4 13.2 55.6 12.9 55.75 12.45 56.1 11.55 56.1 11.05 56.1 10.4 55.65 9.75 54.95 8.9 54.55 8.3 54.4 8.2 54.05 7.7
M 55 11.15
Q 55 11.4 54.6 12.15 54.15 12.9 54.15 13.05 54.15 13.1 54.15 13.15 54.05 13.3 54.05 13.55 54.05 13.8 55.9 14.4 56.85 14.75 58.15 15.1 57.8 15.5 57.65 16.3 57.5 17.15 57.4 17.45
L 56.65 17.45
Q 56.2 17.4 55.05 16.95 53.95 16.55 53.85 16.55 53.65 16.55 53.5 16.65 53.35 16.8 53.35 17.05 53.05 17.15 53.05 17.55 53.05 17.65 53.45 18.05 53.95 18.45 54.15 19 53.6 19.3 52.95 19.75 52.4 20.1 51.9 20.3 51.6 19.8 51.2 19 50.75 18.1 50.55 17.7 50.35 17.25 49.95 16.7 49.85 16.4 49.55 15.8 49 14.7 48.95 14.65 48.95 14.55 48.85 14.15 48.7 13.7 48.6 13.6 48.5 13.55 48.4 13.55 48.3 13.15 47.9 13.15 47.7 13.15 47.1 13.9 46.55 14.65 46.15 14.65 45.75 14.65 45.1 13.4 44.5 12.2 44.5 11.9 44.5 11.8 45.75 10.8 46.65 10.1 47.35 9.6 47.85 9.25 48.3 9 48.6 8.85 49.25 8.55 49.55 8.4 50.55 7.8 51.45 7.35 51.85 7.35 52.45 7.35 53.8 9.1 55 10.75 55 11.15
M 53.1 10.85
Q 52.95 10.8 52.85 10.75 51.75 10.85 50.35 10.75 50.05 10.7 50 10.75 49.95 10.8 49.95 11.05 49.95 11.25 50.45 12.05 51 13.05 51.45 13.05 51.6 13.05 52.4 12.2 53.2 11.4 53.2 11.1 53.2 10.9 53.1 10.85
M 52 11.5
L 51.9 11.6
Q 51.8 11.7 51.65 11.85 51.6 11.95 51.45 12.05 51.25 11.7 51.1 11.55
L 51.55 11.5
Q 51.75 11.5 52 11.5
M 11.65 35.4
Q 11.65 35.1 11.5 34.95 11.45 34.85 11.1 34.7 10.25 34.35 9.7 33.45 9.3 32.5 8.8 32.5 8.55 32.55 8.45 32.75 8.1 32.85 7.6 33.15 6.35 33.9 4.5 35.65 2.7 37.4 1.4 39.05 0 40.85 0 41.55 0 42.25 1.4 43.95 2.15 44.8 3.05 45.8 3.55 46.4 4.5 47.9 5.45 49.25 6.6 50
L 7.2 50
Q 9 48.7 12.2 45.95 14.7 43.85 15.45 43 15.55 43 15.6 42.9 15.75 42.8 15.75 42.6
L 15.75 42.5
Q 15.75 42.1 15.35 41.55 14.75 40.9 14.5 40.5 14.25 39.8 13.95 39.4 13.4 38.65 12.8 39.35 11.75 40.25 10.85 41.15 10.75 41.2 10.7 41.3 11.55 38.95 11.55 38.7 11.55 38.6 11.45 38.45 11.3 38.25 11 38.2
L 10.55 38.2
Q 10.2 38.4 9.25 38.75 8.75 38.95 8.4 39.1 8.6 38.85 8.9 38.55 11.65 35.6 11.65 35.4
M 7 34.9
Q 7.95 34.05 8.45 33.65 8.6 34 9.1 34.55 10.05 35.5 10.15 35.7 8.85 36.95 7.65 38.15 5.4 40.5 5.4 41 5.4 41.2 5.45 41.3 5.55 41.5 6 41.5
L 6.45 41.5
Q 6.55 41.45 8.2 40.65 9.75 39.9 10.05 39.8
L 10.05 39.9
Q 9.8 40.25 9.45 41.35 9.05 42.55 9.05 43.05 9.05 43.1 9.05 43.25
L 9.05 43.3
Q 9.05 43.35 9.05 43.45 9.15 43.75 9.6 43.75 9.65 43.75 9.7 43.75 9.95 43.75 13.2 40.5 13.45 40.75 14.15 41.95 14.3 42.25 14.5 42.5 13.5 43.25 11.05 45.4 7.15 48.75 7 48.75 6.4 48.75 5.35 47.25 4.35 45.55 4.15 45.25 3.9 44.85 2.4 43.2 1.1 41.8 1.1 41.6 1.1 41.15 2.6 39.35 3.85 37.85 4.3 37.4 5.1 36.6 7 34.9
M 16.4 26.55
Q 16.3 26.6 15.7 27.25 15.3 27.7 14.9 27.9 14.65 28 13.2 29.15 11.95 30.2 11.75 30.5 11.5 30.75 11.35 31.15 11.05 31.7 11.05 32.25 11.05 32.75 11.25 33.2 11.45 33.75 11.9 34.1 12 34.2 12.5 35.05 13.1 35.85 13.55 35.85 13.7 35.85 14.45 35.4 14.8 35.2 15 35
L 15.1 35
Q 15.3 34.8 15.6 34.65
L 16.05 35.6
Q 16.7 36.85 17.15 37.15 17.65 37.85 18.45 38.75 20.4 41.15 20.9 41.5
L 21.45 41.5
Q 22.35 40.9 23.05 40.05 23.7 39.2 23.7 38.55 23.7 38.4 23.2 37.55
L 25.4 37.55
Q 25.95 37.3 26 36.35
L 25.95 35.4
Q 25.95 33.5 25.55 33.15 25.4 33.05 23.8 32.75 22.35 32.45 22.15 32.45 21.95 32.4 21.8 32.35 21.9 32.25 22 32.15 23.1 30.9 23.1 30.55 23.1 29.75 21.6 27.75 20.2 26 19.6 25.6 17.4 25.65 16.4 26.55
M 15.25 28.95
Q 17.95 26.85 19.15 26.7 19.55 27 20.75 28.6 21.95 30.25 21.95 30.5 21.95 30.75 21.1 31.45 20.25 32.2 20.25 32.65 20.25 32.9 20.25 33 20.35 33.3 20.75 33.3
L 20.8 33.3
Q 20.9 33.35 21.1 33.4 21.35 33.5 24.05 33.95 24.7 34.05 24.85 34.4 24.9 34.55 24.9 35.3
L 24.9 36.2
Q 24.9 36.75 24.55 36.75 24.35 36.8 23.8 36.6 23.1 36.35 22.8 36.3 22.3 36.2 21.95 36.55 21.85 36.6 21.75 36.7 21.7 36.7 21.7 36.75 21.65 36.8 21.65 36.95
L 21.65 37.1
Q 21.65 37.45 22.1 37.95 22.5 38.45 22.5 38.55 22.5 38.7 21.9 39.45 21.25 40.25 21.1 40.3 19.3 38.2 18.45 37.1 18.35 37 17.7 36.05 17.2 35.05 16.65 34.25 16.4 33.85 16.2 33.6 16.1 33.25 15.85 33.25 15.45 32.95 15.3 33.4 15.25 33.45 15.15 33.5 14.9 33.7 14.65 33.95 14.45 33.95 14.2 34.15 13.95 34.4 13.65 34.4 13.55 34.4 12.85 33.45 12.1 32.45 12.1 32.25 12.1 31.95 12.5 31.3 12.7 31.05 12.8 30.85 13.05 30.7 13.45 30.4 13.95 30 15.25 28.95
M 16.9 30.1
Q 16.55 30.15 16.45 30.2 16.45 30.5 16.7 30.8 16.95 31.2 17 31.3 17.1 31.5 17.45 31.9 17.75 32.25 17.95 32.4
L 18.25 31.8
Q 18.55 31.15 18.8 30.7 19 30.25 18.85 30.15 18.8 30.1 18.65 30 17.35 30.05 16.9 30.1
M 18.05 30.75
L 18 30.8 17.7 31.05
Q 17.7 30.9 17.7 30.8 17.7 30.75 17.9 30.75 17.95 30.75 18.05 30.75
M 24.25 22.3
Q 23.9 22.3 23.3 22.85 22.75 23.35 22.35 24 21.9 24.7 21.9 25.1 21.9 25.75 23.05 27.15 24.1 28.45 24.7 28.75
L 25.4 28.75
Q 26.45 28.25 26.5 28.2 26.65 28.1 26.7 27.95 26.85 28.15 27.05 28.5 27.45 29.15 27.8 29.45 28.3 30.15 29.75 31.85 30.05 32.1 30.25 32.55 30.4 32.8 30.65 33.25 31.15 34.15 32.35 34.55 33.1 33.9 34.25 33.15 35 32.55 35 31.9 35 31.8 34.35 30.75 34.5 30.8 34.7 30.8 35.65 31 36.9 31.2
L 37.75 31.2
Q 38.1 30.9 38.25 29.95 38.25 28.95 38.25 28.9 38.25 28.5 38.25 28.25 38.3 27.85 38.25 27.6 38.2 27.1 38 26.8 37.75 26.5 37.4 26.35 36.9 26.3 35.9 25.95 34.8 25.5 34.25 25.35 34.05 25.3 33.85 25.25 33.95 25.15 34 25 34.85 23.95 34.85 23.35 34.85 22.65 34.45 22.25 33.75 21.55 33.4 20.9 33.05 20.3 32.4 19.6 31.75 18.95 30.95 18.4
L 30.5 18.4
Q 29 19.15 26.8 20.55 25 21.65 24.25 22.3
M 23.85 24.05
Q 24.4 23.55 24.6 23.2 25.25 22.8 27.15 21.5 30.1 19.65 30.75 19.65 30.85 19.65 32.3 21.45 33.8 23.25 33.8 23.4 33.4 23.85 33 24.35 32.25 25.35 32.25 25.6 32.25 25.75 32.3 25.85 32.4 26.1 32.85 26.1
L 32.9 26.1
Q 33.3 26.3 34.05 26.5 36.65 27.3 36.85 27.4
L 37 27.55
Q 37.15 27.65 37.2 27.7
L 37.2 30.05
Q 35.65 30.1 35.05 29.85 34.45 29.55 33.7 29.55 33.55 29.55 33.45 29.55 33.3 29.4 33.2 29.4 33 29.4 32.85 29.5 32.75 29.6 32.7 29.6 32.7 29.7 32.7 29.75 32.65 29.8 32.65 30.05 32.65 30.25 33.15 30.95 33.65 31.7 33.85 31.9 33.55 32.2 33 32.65 32.4 33.1 32.05 33.25 31.7 32.85 31 31.85 30.3 30.85 29.8 30.3 29.15 29.3 28.65 28.8 28.15 27.9 27.6 27.25 26.6 26 26.45 27.05 26.4 27 26.25 27 26.1 27 25.7 27.3 25.25 27.65 25.1 27.65 24.9 27.65 23.95 26.45 23 25.25 23 25.1 23 24.8 23.85 24.05
M 28.45 22.85
Q 28.2 22.9 28.2 23.15 28.2 23.35 28.9 24.3 29.7 25.35 30.15 25.35 30.4 25.35 30.6 24.55 30.75 23.9 30.75 23.35 30.75 23.1 30.65 23 30.6 22.95 30.35 22.8 28.8 22.8 28.45 22.85
M 29.9 23.6
Q 29.9 24.05 29.85 24.05 29.6 24 29.5 23.85 29.45 23.65 29.4 23.6
L 29.4 23.55 29.9 23.55 29.9 23.6
M 44.85 17.4
Q 42.6 14.6 41 12.85 40.2 12.85 38.6 13.55 37.15 14.15 35.85 14.95 34.75 15.65 34.5 16.2 34.35 16.45 34.35 17.45 34.35 18.15 35.55 20.4 36.2 21.55 36.9 22.75 37.15 23.15 37.9 24.05 38.55 24.85 38.8 25.4 39.15 26.05 40.05 26.95 41.25 28.05 42.1 28.05 43.35 28.05 45.95 25.55 46.25 25.1 47.35 24 48 23.35 48 22.7 48 21.5 44.85 17.4
M 41.7 15.4
Q 42.2 15.95 42.3 16.2 42.35 16.25 44.6 19.05 46.85 22 46.85 22.7 46.85 22.8 46.25 23.45 45.55 24.25 44.8 24.95 42.65 27.1 41.85 26.95 40.65 26.05 39.65 24.7 39.55 24.6 38 22.3 36.95 20.65 36.6 20.1 35.45 18.05 35.45 17.4 35.45 16.7 36.85 15.8 37.6 15.3 38.7 14.75 39.5 14.2 40.15 14.1 40.85 14 41.1 14.6 41.25 14.85 41.7 15.4
M 41.6 17.2
Q 41.3 16.8 40.5 16.95 39.3 17.1 38.85 17.5 38.5 17.75 38.5 18.35 38.5 18.7 39.3 19.65
L 40.2 20.7
Q 40.6 21.5 41.1 22.2 41.85 23.2 42.3 23.2 42.6 23.2 43.2 22.45 43.75 21.65 43.75 21.3 43.75 21.2 42.95 20 42.1 18.7 41.95 18.1 41.75 17.45 41.6 17.2
M 41.8 19.5
Q 42.45 20.6 43 21.3 42.75 21.7 42.65 21.8 42.5 22 42.25 22.25 41.55 21.25 39.3 18.35 39.65 18.1 40.1 17.85 40.4 17.75 40.75 17.6 41.1 18.2 41.8 19.5
M 63.2 10.95
Q 62.35 11.55 62.1 11.75 61.1 12.6 61.1 12.65 60.55 13.2 60.55 13.55 60.55 13.65 60.7 14 60.9 14.55 61.15 14.95 62 16.35 63.05 16.35 63.5 16.35 64 15.7 64.7 14.9 65 14.7 65.55 14.35 65.85 13.75 66.1 13.25 66.1 12.7 66.1 12.4 65.55 11.35 65 10.3 64.75 10.15
L 64.3 10.15
Q 63.65 10.65 63.2 10.95
M 64.5 11.6
Q 64.5 11.75 64.75 12.25 64.95 12.7 64.95 12.75 64.95 13.35 64.55 13.65 63.75 14.25 62.95 14.95 62.75 14.8 62.25 14.25 62 13.95 61.7 13.7 62.2 13.2 63.15 12.55 64.35 11.7 64.5 11.6 Z"/>

<path fill="#FF6600" stroke="none" d="
M 61.1 1.2
L 61.05 1.1
Q 59.2 2.45 58.2 3.15 56.75 4.1 55.6 4.75 56.2 5.55 58.5 7.35 60.75 9.1 61.3 10
L 61.3 10.05
Q 61.45 9.9 61.6 9.7 61.65 9.6 61.8 9.1
L 61.75 9.1
Q 61.25 9.1 61.15 6.1 61.1 5.35 61.1 1.2
M 54.6 12.15
Q 55 11.4 55 11.15 55 10.75 53.8 9.1 52.45 7.35 51.85 7.35 51.45 7.35 50.55 7.8 49.55 8.4 49.25 8.55 48.6 8.85 48.3 9 47.85 9.25 47.35 9.6 46.65 10.1 45.75 10.8 44.5 11.8 44.5 11.9 44.5 12.2 45.1 13.4 45.75 14.65 46.15 14.65 46.55 14.65 47.1 13.9 47.7 13.15 47.9 13.15 48.3 13.15 48.4 13.55 48.5 13.55 48.6 13.6 48.7 13.7 48.85 14.15 48.95 14.55 48.95 14.65 49 14.7 49.55 15.8 49.85 16.4 49.95 16.7 50.35 17.25 50.55 17.7 50.75 18.1 51.2 19 51.6 19.8 51.9 20.3 52.4 20.1 52.95 19.75 53.6 19.3 54.15 19 53.95 18.45 53.45 18.05 53.05 17.65 53.05 17.55 53.05 17.15 53.35 17.05 53.35 16.8 53.5 16.65 53.65 16.55 53.85 16.55 53.95 16.55 55.05 16.95 56.2 17.4 56.65 17.45
L 57.4 17.45
Q 57.5 17.15 57.65 16.3 57.8 15.5 58.15 15.1 56.85 14.75 55.9 14.4 54.05 13.8 54.05 13.55 54.05 13.3 54.15 13.15 54.15 13.1 54.15 13.05 54.15 12.9 54.6 12.15
M 52.85 10.75
Q 52.95 10.8 53.1 10.85 53.2 10.9 53.2 11.1 53.2 11.4 52.4 12.2 51.6 13.05 51.45 13.05 51 13.05 50.45 12.05 49.95 11.25 49.95 11.05 49.95 10.8 50 10.75 50.05 10.7 50.35 10.75 51.75 10.85 52.85 10.75
M 8.45 33.65
Q 7.95 34.05 7 34.9 5.1 36.6 4.3 37.4 3.85 37.85 2.6 39.35 1.1 41.15 1.1 41.6 1.1 41.8 2.4 43.2 3.9 44.85 4.15 45.25 4.35 45.55 5.35 47.25 6.4 48.75 7 48.75 7.15 48.75 11.05 45.4 13.5 43.25 14.5 42.5 14.3 42.25 14.15 41.95 13.45 40.75 13.2 40.5 9.95 43.75 9.7 43.75 9.65 43.75 9.6 43.75 9.15 43.75 9.05 43.45 9.05 43.35 9.05 43.3
L 9.05 43.25
Q 9.05 43.1 9.05 43.05 9.05 42.55 9.45 41.35 9.8 40.25 10.05 39.9
L 10.05 39.8
Q 9.75 39.9 8.2 40.65 6.55 41.45 6.45 41.5
L 6 41.5
Q 5.55 41.5 5.45 41.3 5.4 41.2 5.4 41 5.4 40.5 7.65 38.15 8.85 36.95 10.15 35.7 10.05 35.5 9.1 34.55 8.6 34 8.45 33.65
M 19.15 26.7
Q 17.95 26.85 15.25 28.95 13.95 30 13.45 30.4 13.05 30.7 12.8 30.85 12.7 31.05 12.5 31.3 12.1 31.95 12.1 32.25 12.1 32.45 12.85 33.45 13.55 34.4 13.65 34.4 13.95 34.4 14.2 34.15 14.45 33.95 14.65 33.95 14.9 33.7 15.15 33.5 15.25 33.45 15.3 33.4 15.45 32.95 15.85 33.25 16.1 33.25 16.2 33.6 16.4 33.85 16.65 34.25 17.2 35.05 17.7 36.05 18.35 37 18.45 37.1 19.3 38.2 21.1 40.3 21.25 40.25 21.9 39.45 22.5 38.7 22.5 38.55 22.5 38.45 22.1 37.95 21.65 37.45 21.65 37.1
L 21.65 36.95
Q 21.65 36.8 21.7 36.75 21.7 36.7 21.75 36.7 21.85 36.6 21.95 36.55 22.3 36.2 22.8 36.3 23.1 36.35 23.8 36.6 24.35 36.8 24.55 36.75 24.9 36.75 24.9 36.2
L 24.9 35.3
Q 24.9 34.55 24.85 34.4 24.7 34.05 24.05 33.95 21.35 33.5 21.1 33.4 20.9 33.35 20.8 33.3
L 20.75 33.3
Q 20.35 33.3 20.25 33 20.25 32.9 20.25 32.65 20.25 32.2 21.1 31.45 21.95 30.75 21.95 30.5 21.95 30.25 20.75 28.6 19.55 27 19.15 26.7
M 16.45 30.2
Q 16.55 30.15 16.9 30.1 17.35 30.05 18.65 30 18.8 30.1 18.85 30.15 19 30.25 18.8 30.7 18.55 31.15 18.25 31.8
L 17.95 32.4
Q 17.75 32.25 17.45 31.9 17.1 31.5 17 31.3 16.95 31.2 16.7 30.8 16.45 30.5 16.45 30.2
M 24.6 23.2
Q 24.4 23.55 23.85 24.05 23 24.8 23 25.1 23 25.25 23.95 26.45 24.9 27.65 25.1 27.65 25.25 27.65 25.7 27.3 26.1 27 26.25 27 26.4 27 26.45 27.05 26.6 26 27.6 27.25 28.15 27.9 28.65 28.8 29.15 29.3 29.8 30.3 30.3 30.85 31 31.85 31.7 32.85 32.05 33.25 32.4 33.1 33 32.65 33.55 32.2 33.85 31.9 33.65 31.7 33.15 30.95 32.65 30.25 32.65 30.05 32.65 29.8 32.7 29.75 32.7 29.7 32.7 29.6 32.75 29.6 32.85 29.5 33 29.4 33.2 29.4 33.3 29.4 33.45 29.55 33.55 29.55 33.7 29.55 34.45 29.55 35.05 29.85 35.65 30.1 37.2 30.05
L 37.2 27.7
Q 37.15 27.65 37 27.55
L 36.85 27.4
Q 36.65 27.3 34.05 26.5 33.3 26.3 32.9 26.1
L 32.85 26.1
Q 32.4 26.1 32.3 25.85 32.25 25.75 32.25 25.6 32.25 25.35 33 24.35 33.4 23.85 33.8 23.4 33.8 23.25 32.3 21.45 30.85 19.65 30.75 19.65 30.1 19.65 27.15 21.5 25.25 22.8 24.6 23.2
M 28.2 23.15
Q 28.2 22.9 28.45 22.85 28.8 22.8 30.35 22.8 30.6 22.95 30.65 23 30.75 23.1 30.75 23.35 30.75 23.9 30.6 24.55 30.4 25.35 30.15 25.35 29.7 25.35 28.9 24.3 28.2 23.35 28.2 23.15
M 42.3 16.2
Q 42.2 15.95 41.7 15.4 41.25 14.85 41.1 14.6 40.85 14 40.15 14.1 39.5 14.2 38.7 14.75 37.6 15.3 36.85 15.8 35.45 16.7 35.45 17.4 35.45 18.05 36.6 20.1 36.95 20.65 38 22.3 39.55 24.6 39.65 24.7 40.65 26.05 41.85 26.95 42.65 27.1 44.8 24.95 45.55 24.25 46.25 23.45 46.85 22.8 46.85 22.7 46.85 22 44.6 19.05 42.35 16.25 42.3 16.2
M 40.5 16.95
Q 41.3 16.8 41.6 17.2 41.75 17.45 41.95 18.1 42.1 18.7 42.95 20 43.75 21.2 43.75 21.3 43.75 21.65 43.2 22.45 42.6 23.2 42.3 23.2 41.85 23.2 41.1 22.2 40.6 21.5 40.2 20.7
L 39.3 19.65
Q 38.5 18.7 38.5 18.35 38.5 17.75 38.85 17.5 39.3 17.1 40.5 16.95
M 64.75 12.25
Q 64.5 11.75 64.5 11.6 64.35 11.7 63.15 12.55 62.2 13.2 61.7 13.7 62 13.95 62.25 14.25 62.75 14.8 62.95 14.95 63.75 14.25 64.55 13.65 64.95 13.35 64.95 12.75 64.95 12.7 64.75 12.25 Z"/>
</g>
</defs>

<g transform="matrix( 1, 0, 0, 1, 0,0) ">
<use xlink:href="#Layer0_0_FILL"/>
</g>
</svg>
